<svg xmlns="http://www.w3.org/2000/svg" xmlns:xlink="http://www.w3.org/1999/xlink" version="1.1" x="0px" y="0px" viewBox="0 0 100 125" enable-background="new 0 0 100 100" xml:space="preserve"><g display="none"><path display="inline" d="M50.002,32.008c9.916,0,17.989,8.07,17.989,17.992c0,9.92-8.073,17.99-17.989,17.99   c-9.921,0-17.995-8.07-17.995-17.99C32.007,40.078,40.081,32.008,50.002,32.008 M50.002,14.018   C30.13,14.018,14.018,30.127,14.018,50S30.13,85.982,50.002,85.982c19.873,0,35.98-16.109,35.98-35.982   S69.875,14.018,50.002,14.018L50.002,14.018z"/></g><g display="none"><path display="inline" d="M50.463,22.014c-19.869,0-35.984,11.045-35.984,24.674c0,6.475,3.667,12.341,9.612,16.748l-4.027,14.551   l20.54-7.581c3.132,0.614,6.438,0.968,9.859,0.968c19.873,0,35.98-11.05,35.98-24.684C86.443,33.059,70.336,22.014,50.463,22.014z"/></g><g display="none"><rect x="15.209" y="32.138" transform="matrix(0.7071 0.7071 -0.7071 0.7071 47.1313 -19.5224)" display="inline" width="63.844" height="29.986"/><polygon display="inline" points="64.752,85.957 64.842,86.045 85.982,85.98 86.045,64.842 85.957,64.756  "/></g><g><rect x="10" y="75.5" width="11" height="4"/><rect x="25" y="75.5" width="26" height="4"/><path d="M23.982,38.689c-0.088,0.213-0.126,0.432-0.126,0.65c0,0.444,0.173,0.875,0.497,1.199l25.448,23.753   c0.33,0.331,0.762,0.497,1.199,0.497c0.431,0,0.867-0.166,1.199-0.497l25.446-23.753c0.326-0.324,0.498-0.755,0.498-1.2   c0-0.218-0.047-0.437-0.131-0.65c-0.262-0.629-0.883-1.045-1.566-1.045H61.179V12.196c0-0.934-0.762-1.696-1.696-1.696H42.517   c-0.941,0-1.696,0.762-1.696,1.696v25.448H25.552C24.864,37.644,24.246,38.061,23.982,38.689z"/><path d="M97,25.5H66.179v6H94V44H81.248c-0.027,0.028-0.051,0.058-0.078,0.085l-0.056,0.055l-0.057,0.054L64.125,60H94v23.5H6V60   h31.875L20.941,44.194l-0.063-0.059l-0.061-0.061c-0.024-0.024-0.044-0.05-0.067-0.074H6V31.5h29.821v-6H3c-1.657,0-3,1.343-3,3v58   c0,1.657,1.343,3,3,3h94c1.657,0,3-1.343,3-3v-58C100,26.843,98.657,25.5,97,25.5z"/></g><text x="0" y="115" fill="#000000" font-size="5px" font-weight="bold" font-family="'Helvetica Neue', Helvetica, Arial-Unicode, Arial, Sans-serif">Created by Stefan Parnarov</text><text x="0" y="120" fill="#000000" font-size="5px" font-weight="bold" font-family="'Helvetica Neue', Helvetica, Arial-Unicode, Arial, Sans-serif">from the Noun Project</text></svg>